<svg xmlns="http://www.w3.org/2000/svg" style="display: none;">
  <!-- Undo -->
  <symbol id="icon-undo" viewBox="0 0 24 24" fill="none" stroke="currentColor">
    <path stroke-linecap="round" stroke-linejoin="round" stroke-width="2" d="M9 14l-4-4m0 0l4-4m-4 4h12.5a5.5 5.5 0 0 1 0 11H13"/>
  </symbol>
  
  <!-- Redo -->
  <symbol id="icon-redo" viewBox="0 0 24 24" fill="none" stroke="currentColor">
    <path stroke-linecap="round" stroke-linejoin="round" stroke-width="2" d="M15 14l4-4m0 0l-4-4m4 4H6.5a5.5 5.5 0 0 0 0 11H11"/>
  </symbol>
  
  <!-- Add/Plus -->
  <symbol id="icon-plus" viewBox="0 0 24 24" fill="none" stroke="currentColor">
    <path stroke-linecap="round" stroke-linejoin="round" stroke-width="2" d="M12 4v16m8-8H4"/>
  </symbol>
  
  <!-- Trash -->
  <symbol id="icon-trash" viewBox="0 0 24 24" fill="none" stroke="currentColor">
    <path stroke-linecap="round" stroke-linejoin="round" stroke-width="2" d="M19 7l-.867 12.142A2 2 0 0116.138 21H7.862a2 2 0 01-1.995-1.858L5 7m5 4v6m4-6v6m1-10V4a1 1 0 00-1-1h-4a1 1 0 00-1 1v3M4 7h16"/>
  </symbol>
  
  <!-- Lock Unlocked -->
  <symbol id="icon-lock-unlocked" viewBox="0 0 24 24" fill="none" stroke="currentColor">
    <path stroke-linecap="round" stroke-linejoin="round" stroke-width="2" d="M8 11h8m-8 0V7a4 4 0 0 1 4-4 4 4 0 0 1 4 4m-8 4v0m0 0H6a2 2 0 0 0-2 2v6a2 2 0 0 0 2 2h12a2 2 0 0 0 2-2v-6a2 2 0 0 0-2-2h-2M12 15v2"/>
  </symbol>
  
  <!-- Lock Locked -->
  <symbol id="icon-lock-locked" viewBox="0 0 24 24" fill="none" stroke="currentColor">
    <path stroke-linecap="round" stroke-linejoin="round" stroke-width="2" d="M12 15v2m-6 4h12a2 2 0 0 0 2-2v-6a2 2 0 0 0-2-2H6a2 2 0 0 0-2 2v6a2 2 0 0 0 2 2zm10-10V7a4 4 0 0 0-8 0v4h8z"/>
  </symbol>
  
  <!-- Minus -->
  <symbol id="icon-minus" viewBox="0 0 24 24" fill="none" stroke="currentColor">
    <path stroke-linecap="round" stroke-linejoin="round" stroke-width="2" d="M20 12H4"/>
  </symbol>
  
  <!-- Fit View -->
  <symbol id="icon-fit-view" viewBox="0 0 24 24" fill="none" stroke="currentColor">
    <path stroke-linecap="round" stroke-linejoin="round" stroke-width="2" d="M4 8V4h4m12 4V4h-4M4 16v4h4m12-4v4h-4"/>
  </symbol>
  
  <!-- Import -->
  <symbol id="icon-import" viewBox="0 0 24 24" fill="none" stroke="currentColor">
    <path stroke-linecap="round" stroke-linejoin="round" stroke-width="2" d="M3 16v3a2 2 0 0 0 2 2h14a2 2 0 0 0 2-2v-3M12 3v12m0 0l-4-4m4 4l4-4"/>
  </symbol>
  
  <!-- Export -->
  <symbol id="icon-export" viewBox="0 0 24 24" fill="none" stroke="currentColor">
    <path stroke-linecap="round" stroke-linejoin="round" stroke-width="2" d="M3 16v3a2 2 0 0 0 2 2h14a2 2 0 0 0 2-2v-3M12 12V3m0 0L8 7m4-4l4 4"/>
  </symbol>
  
  <!-- Cloud Upload -->
  <symbol id="icon-cloud-upload" viewBox="0 0 24 24" fill="none" stroke="currentColor">
    <path stroke-linecap="round" stroke-linejoin="round" stroke-width="2" d="M7 16a4 4 0 01-.88-7.903A5 5 0 1115.9 6L16 6a5 5 0 011 9.9M15 13l-3-3m0 0l-3 3m3-3v12"/>
  </symbol>
  
  <!-- Cloud Download -->
  <symbol id="icon-cloud-download" viewBox="0 0 24 24" fill="none" stroke="currentColor">
    <path stroke-linecap="round" stroke-linejoin="round" stroke-width="2" d="M7 16a4 4 0 01-.88-7.903A5 5 0 1115.9 6L16 6a5 5 0 011 9.9M9 11l3 3m0 0l3-3m-3 3V4"/>
  </symbol>
  
  <!-- Markdown Off (Raw Code) -->
  <symbol id="icon-markdown-off" viewBox="0 0 24 24" fill="none" stroke="currentColor">
    <path stroke-linecap="round" stroke-linejoin="round" stroke-width="2" d="M8 9l-3 3 3 3m8-6l3 3-3 3M13 5L11 19"/>
  </symbol>
  
  <!-- Markdown On -->
  <symbol id="icon-markdown-on" viewBox="0 0 24 24" fill="currentColor">
    <path d="M3 5h2v14H3V5zm4 0h2v14H7V5zm4 0h4v2h-4V5zm0 4h4v2h-4V9zm0 4h4v2h-4v-2zm6-8h2v14h-2V5z"/>
  </symbol>
  
  <!-- Sun -->
  <symbol id="icon-sun" viewBox="0 0 24 24" fill="none" stroke="currentColor">
    <path stroke-linecap="round" stroke-linejoin="round" stroke-width="2" d="M12 3v1m0 16v1m9-9h-1M4 12H3m15.364 6.364l-.707-.707M6.343 6.343l-.707-.707m12.728 0l-.707.707M6.343 17.657l-.707.707M16 12a4 4 0 1 1-8 0 4 4 0 0 1 8 0z"/>
  </symbol>
  
  <!-- Moon -->
  <symbol id="icon-moon" viewBox="0 0 24 24" fill="none" stroke="currentColor">
    <path stroke-linecap="round" stroke-linejoin="round" stroke-width="2" d="M20.354 15.354A9 9 0 0 1 8.646 3.646 9.003 9.003 0 0 0 12 21a9.003 9.003 0 0 0 8.354-5.646z"/>
  </symbol>
  
  <!-- Eye -->
  <symbol id="icon-eye" viewBox="0 0 24 24" fill="none" stroke="currentColor">
    <path stroke-linecap="round" stroke-linejoin="round" stroke-width="2" d="M15 12a3 3 0 11-6 0 3 3 0 016 0z"/>
    <path stroke-linecap="round" stroke-linejoin="round" stroke-width="2" d="M2.458 12C3.732 7.943 7.523 5 12 5c4.478 0 8.268 2.943 9.542 7-1.274 4.057-5.064 7-9.542 7-4.477 0-8.268-2.943-9.542-7z"/>
  </symbol>
  
  <!-- Check -->
  <symbol id="icon-check" viewBox="0 0 24 24" fill="none" stroke="currentColor">
    <path stroke-linecap="round" stroke-linejoin="round" stroke-width="2" d="M5 13l4 4L19 7"/>
  </symbol>
  
  <!-- X -->
  <symbol id="icon-x" viewBox="0 0 24 24" fill="none" stroke="currentColor">
    <path stroke-linecap="round" stroke-linejoin="round" stroke-width="2" d="M6 18L18 6M6 6l12 12"/>
  </symbol>
  
  <!-- Info -->
  <symbol id="icon-info" viewBox="0 0 24 24" fill="none" stroke="currentColor">
    <path stroke-linecap="round" stroke-linejoin="round" stroke-width="2" d="M13 16h-1v-4h-1m1-4h.01M21 12a9 9 0 11-18 0 9 9 0 0118 0z"/>
  </symbol>
  
  <!-- Grid -->
  <symbol id="icon-grid" viewBox="0 0 24 24" fill="none" stroke="currentColor">
    <path stroke-linecap="round" stroke-linejoin="round" stroke-width="2" d="M4 6h16M4 12h16M4 18h16"/>
    <path stroke-linecap="round" stroke-linejoin="round" stroke-width="2" d="M6 4v16M12 4v16M18 4v16"/>
  </symbol>
  <!-- User/Account -->
  <symbol id="icon-user" viewBox="0 0 24 24" fill="none" stroke="currentColor">
    <path stroke-linecap="round" stroke-linejoin="round" stroke-width="2" d="M12 11c2.21 0 4-1.79 4-4s-1.79-4-4-4-4 1.79-4 4 1.79 4 4 4z"/>
    <path stroke-linecap="round" stroke-linejoin="round" stroke-width="2" d="M18 21v-2a4 4 0 00-4-4H10a4 4 0 00-4 4v2"/>
  </symbol>
</svg>
